<svg width="150" height="148" viewBox="0 0 150 148" fill="none" xmlns="http://www.w3.org/2000/svg">
<path d="M125.625 77.7087C124.944 76.9296 124.367 76.0796 123.891 75.1821C123.658 99.3037 103.965 118.857 79.789 118.857C55.4681 118.857 35.6811 99.0698 35.6811 74.7488C35.6811 50.4279 55.4681 30.6409 79.789 30.6409C100.711 30.6409 118.278 45.2847 122.779 64.8604L126.773 35.1669L126.863 34.4993C115.489 21.2161 98.6066 12.7828 79.789 12.7828C65.1082 12.7828 51.6057 17.918 40.9771 26.4822V27.1234V27.691V40.268V40.7673C40.9771 49.1681 36.6231 56.8378 29.7334 61.2204V110.382V111.229C41.0141 126.665 59.2485 136.714 79.789 136.714C101.373 136.714 120.412 125.619 131.51 108.834V107.926V81.594C129.258 80.8615 127.218 79.5307 125.625 77.7087Z" fill="#64646A"/>
<path d="M79.7891 38.1372C59.6014 38.1372 43.177 54.5611 43.177 74.7493C43.177 94.9376 59.6009 111.361 79.7891 111.361C99.9774 111.361 116.401 94.9376 116.401 74.7493C116.401 54.5611 99.9769 38.1372 79.7891 38.1372Z" fill="#64646A"/>
<path d="M149.833 6.23393C149.833 3.0437 147.247 0.457642 144.057 0.457642C141.164 0.457642 138.718 2.59695 138.333 5.46386L129.892 68.2034C129.67 69.855 130.172 71.5216 131.268 72.7759C132.365 74.0302 133.95 74.7493 135.617 74.7493H139.006V142.045C139.006 145.081 141.467 147.542 144.503 147.542C147.538 147.542 150 145.081 150 142.045L149.833 6.23393Z" fill="#64646A"/>
<path d="M33.4814 7.45372C33.4814 5.38338 31.8038 3.70581 29.7334 3.70581C27.6631 3.70581 25.9855 5.38338 25.9855 7.45372V28.1917H20.4886V7.45372C20.4886 5.38338 18.811 3.70581 16.7407 3.70581C14.6703 3.70581 12.9928 5.38338 12.9928 7.45372V28.1917H7.49583V7.45372C7.49583 5.38338 5.81826 3.70581 3.74791 3.70581C1.67757 3.70581 0 5.38338 0 7.45372V41.2679C0 48.5733 4.70588 54.7969 11.2437 57.0771V142.045C11.2437 145.081 13.7049 147.542 16.7407 147.542C19.7765 147.542 22.2376 145.081 22.2376 142.045V57.0771C28.7755 54.7969 33.4814 48.5733 33.4814 41.2679V7.45372Z" fill="#64646A"/>
</svg>
