<svg width="98" height="150" viewBox="0 0 98 150" fill="none" xmlns="http://www.w3.org/2000/svg">
<path d="M90.1578 51.6431C88.4874 50.5733 87.6146 48.6526 87.9368 46.7507C92.0428 22.3889 73.2328 0.345636 49.0324 0.0040446C23.8344 -0.3535 4.54142 22.3538 9.06437 47.2453C9.40221 49.1156 8.64208 51.0331 7.12807 52.1279C2.93951 55.1591 0.624702 60.058 0.937515 65.2254C1.75395 78.7148 18.6458 84.2447 27.3326 74.0623C27.4546 74.1374 27.5797 74.2156 27.7017 74.2879C28.978 75.0605 29.7381 76.3803 29.7381 77.8195V84.2853C29.7381 86.7378 30.711 89.0273 32.4784 90.7321C38.1099 96.165 47.656 92.2689 47.656 84.1289V69.4765C47.656 65.9073 51.8227 64.0148 54.3627 66.4832C55.1385 67.2371 55.5639 68.2443 55.5639 69.3201V76.8276C55.5639 81.8523 59.7127 85.9598 64.8513 85.7837C71.6049 85.5331 73.0407 80.4284 73.413 76.5523C83.1398 83.4198 96.6361 76.7237 97.0803 64.866C97.2774 59.5666 94.6248 54.4991 90.1578 51.6431ZM42.3382 20.8908C40.2014 21.6028 40.0666 21.9791 39.1256 21.9791C36.4501 21.9791 35.6559 18.3308 38.0683 17.2087C38.9442 16.8021 39.8513 16.4423 40.7679 16.1389C42.0817 15.7041 43.4956 16.4173 43.9304 17.7311C44.3621 19.0421 43.652 20.4588 42.3382 20.8908ZM26.6601 37.1223C25.0356 37.1223 23.8397 35.6021 24.2264 34.0224C25.1179 30.4 26.8446 26.9528 29.2282 24.0593C30.1041 22.9926 31.6838 22.8393 32.7505 23.7152C33.8172 24.5942 33.9705 26.1708 33.0915 27.2375C31.1833 29.5585 29.8007 32.3144 29.0875 35.2173C28.8091 36.3594 27.7862 37.1223 26.6601 37.1223ZM78.3923 83.97C79.8631 84.2469 80.7137 85.799 80.1625 87.1907L57.7752 143.717C54.4644 152.093 42.4499 152.097 39.1378 143.717L16.8168 87.3653C16.245 85.922 17.1831 84.337 18.7209 84.1227C19.7316 83.9816 20.736 83.7636 21.7239 83.4664C23.176 83.0297 24.6612 84.0126 24.8054 85.5219C25.0387 87.9646 25.9174 91.3608 29.0027 94.336C36.6694 101.729 48.8312 97.99 51.9259 88.7379C52.4586 87.1451 54.4134 86.617 55.7181 87.6743C61.8239 92.6227 71.5251 91.6677 75.9273 84.9554C76.4153 84.2121 77.3328 83.7705 78.3923 83.97Z" fill="#64646A"/>
</svg>
