<svg width="20" height="20" viewBox="0 0 20 20" fill="none" xmlns="http://www.w3.org/2000/svg">
<path d="M6.13198 0.503906L2.41998 6.99991H0.999977C0.687977 6.99991 0.394977 7.14591 0.204977 7.39291C0.015977 7.64091 -0.0470229 7.96291 0.0349771 8.26291L2.83398 18.5259C3.06998 19.3939 3.86398 19.9999 4.76398 19.9999H15.237C16.135 19.9999 16.929 19.3949 17.167 18.5249L19.966 8.26191C20.048 7.96191 19.986 7.63991 19.796 7.39191C19.605 7.14591 19.312 6.99991 19 6.99991H17.58L13.868 0.503906L12.132 1.49591L15.277 6.99991H4.72298L7.86798 1.49591L6.13198 0.503906ZM12 10.9999H14V15.9999H12V10.9999ZM5.99998 10.9999H7.99998V15.9999H5.99998V10.9999Z" fill="#1B1B1D"/>
</svg>
