<svg width="120" height="120" viewBox="0 0 120 120" fill="none" xmlns="http://www.w3.org/2000/svg">
<g filter="url(#filter0_d_1_318)">
<circle cx="60" cy="48" r="30" fill="white"/>
</g>
<path d="M71.1837 43.3813C71.17 42.4351 70.995 41.4963 70.66 40.6113C70.0737 39.1001 68.88 37.9051 67.3687 37.3201C66.495 36.9913 65.5712 36.8151 64.6362 36.7951C63.4337 36.7413 63.0525 36.7263 60 36.7263C56.9475 36.7263 56.5562 36.7263 55.3625 36.7951C54.4287 36.8151 53.505 36.9913 52.6312 37.3201C51.12 37.9051 49.925 39.1001 49.34 40.6113C49.0112 41.4851 48.8337 42.4088 48.8162 43.3426C48.7625 44.5463 48.7462 44.9276 48.7462 47.9801C48.7462 51.0326 48.7462 51.4226 48.8162 52.6176C48.835 53.5526 49.0112 54.4751 49.34 55.3513C49.9262 56.8613 51.12 58.0563 52.6325 58.6413C53.5025 58.9813 54.4262 59.1738 55.3637 59.2038C56.5675 59.2576 56.9487 59.2738 60.0012 59.2738C63.0537 59.2738 63.445 59.2738 64.6387 59.2038C65.5725 59.1851 66.4962 59.0088 67.3712 58.6801C68.8825 58.0938 70.0762 56.8988 70.6625 55.3888C70.9912 54.5138 71.1675 53.5913 71.1862 52.6551C71.24 51.4526 71.2562 51.0713 71.2562 48.0176C71.2537 44.9651 71.2537 44.5776 71.1837 43.3813ZM59.9925 53.7526C56.8 53.7526 54.2137 51.1663 54.2137 47.9738C54.2137 44.7813 56.8 42.1951 59.9925 42.1951C63.1825 42.1951 65.7712 44.7813 65.7712 47.9738C65.7712 51.1663 63.1825 53.7526 59.9925 53.7526ZM66.0012 43.3288C65.255 43.3288 64.6537 42.7263 64.6537 41.9813C64.6537 41.2363 65.255 40.6338 66.0012 40.6338C66.745 40.6338 67.3475 41.2363 67.3475 41.9813C67.3475 42.7263 66.745 43.3288 66.0012 43.3288Z" fill="#64646A"/>
<path d="M59.9925 51.7275C62.0657 51.7275 63.7463 50.0469 63.7463 47.9737C63.7463 45.9006 62.0657 44.22 59.9925 44.22C57.9194 44.22 56.2388 45.9006 56.2388 47.9737C56.2388 50.0469 57.9194 51.7275 59.9925 51.7275Z" fill="#64646A"/>
<defs>
<filter id="filter0_d_1_318" x="0" y="0" width="120" height="120" filterUnits="userSpaceOnUse" color-interpolation-filters="sRGB">
<feFlood flood-opacity="0" result="BackgroundImageFix"/>
<feColorMatrix in="SourceAlpha" type="matrix" values="0 0 0 0 0 0 0 0 0 0 0 0 0 0 0 0 0 0 127 0" result="hardAlpha"/>
<feOffset dy="12"/>
<feGaussianBlur stdDeviation="15"/>
<feComposite in2="hardAlpha" operator="out"/>
<feColorMatrix type="matrix" values="0 0 0 0 0.802604 0 0 0 0 0.820052 0 0 0 0 0.8375 0 0 0 0.28 0"/>
<feBlend mode="normal" in2="BackgroundImageFix" result="effect1_dropShadow_1_318"/>
<feBlend mode="normal" in="SourceGraphic" in2="effect1_dropShadow_1_318" result="shape"/>
</filter>
</defs>
</svg>
