<svg width="120" height="120" viewBox="0 0 120 120" fill="none" xmlns="http://www.w3.org/2000/svg">
<g filter="url(#filter0_d_1_323)">
<circle cx="60" cy="48" r="30" fill="white"/>
</g>
<path d="M69.5412 42.9962C69.5575 43.2149 69.5575 43.4324 69.5575 43.6499C69.5575 50.3062 64.4912 57.9762 55.2325 57.9762C52.38 57.9762 49.73 57.1499 47.5 55.7149C47.905 55.7612 48.295 55.7774 48.7163 55.7774C51.07 55.7774 53.2362 54.9824 54.9675 53.6262C52.7537 53.5799 50.8987 52.1299 50.2587 50.1349C50.57 50.1812 50.8825 50.2124 51.21 50.2124C51.6613 50.2124 52.115 50.1499 52.5362 50.0412C50.2275 49.5737 48.4988 47.5474 48.4988 45.0999V45.0374C49.17 45.4112 49.9488 45.6449 50.7737 45.6762C49.4175 44.7737 48.5287 43.2299 48.5287 41.4837C48.5287 40.5487 48.7775 39.6912 49.2138 38.9437C51.6925 41.9974 55.4187 43.9937 59.5963 44.2124C59.5188 43.8374 59.4712 43.4487 59.4712 43.0587C59.4712 40.2837 61.7162 38.0237 64.5062 38.0237C65.9562 38.0237 67.265 38.6312 68.185 39.6137C69.3225 39.3949 70.4125 38.9737 71.38 38.3974C71.0063 39.5662 70.21 40.5487 69.1663 41.1724C70.18 41.0624 71.1625 40.7824 72.065 40.3924C71.38 41.3899 70.5237 42.2787 69.5412 42.9962Z" fill="#64646A"/>
<defs>
<filter id="filter0_d_1_323" x="0" y="0" width="120" height="120" filterUnits="userSpaceOnUse" color-interpolation-filters="sRGB">
<feFlood flood-opacity="0" result="BackgroundImageFix"/>
<feColorMatrix in="SourceAlpha" type="matrix" values="0 0 0 0 0 0 0 0 0 0 0 0 0 0 0 0 0 0 127 0" result="hardAlpha"/>
<feOffset dy="12"/>
<feGaussianBlur stdDeviation="15"/>
<feComposite in2="hardAlpha" operator="out"/>
<feColorMatrix type="matrix" values="0 0 0 0 0.802604 0 0 0 0 0.820052 0 0 0 0 0.8375 0 0 0 0.28 0"/>
<feBlend mode="normal" in2="BackgroundImageFix" result="effect1_dropShadow_1_323"/>
<feBlend mode="normal" in="SourceGraphic" in2="effect1_dropShadow_1_323" result="shape"/>
</filter>
</defs>
</svg>
