<svg width="120" height="120" viewBox="0 0 120 120" fill="none" xmlns="http://www.w3.org/2000/svg">
<g filter="url(#filter0_d_1_308)">
<circle cx="60" cy="48" r="30" fill="white"/>
</g>
<path d="M67.7083 50.9747C66.8687 50.7941 66.2044 51.1839 65.6163 51.5244C65.0139 51.8752 63.8687 52.8043 63.2122 52.5666C59.8511 51.1827 56.6899 48.2408 55.3215 44.8662C55.0803 44.1957 56.0051 43.0431 56.3533 42.4337C56.6912 41.8438 57.073 41.1733 56.8989 40.3274C56.7415 39.5672 54.7063 36.9775 53.9866 36.2693C53.512 35.8015 53.0257 35.5442 52.5266 35.5026C50.65 35.4221 48.5541 37.926 48.1866 38.5251C47.2657 39.8024 47.2708 41.502 48.202 43.5629C50.4462 49.0984 58.9341 57.4523 64.4903 59.7808C65.5157 60.2603 66.4533 60.5007 67.2956 60.5007C68.1197 60.5007 68.8536 60.2707 69.4843 59.8147C69.9602 59.5404 72.5668 57.3406 72.4984 55.4136C72.4572 54.9223 72.2006 54.4312 71.7388 53.9556C71.0358 53.2292 68.4628 51.1333 67.7083 50.9747Z" fill="#64646A"/>
<defs>
<filter id="filter0_d_1_308" x="0" y="0" width="120" height="120" filterUnits="userSpaceOnUse" color-interpolation-filters="sRGB">
<feFlood flood-opacity="0" result="BackgroundImageFix"/>
<feColorMatrix in="SourceAlpha" type="matrix" values="0 0 0 0 0 0 0 0 0 0 0 0 0 0 0 0 0 0 127 0" result="hardAlpha"/>
<feOffset dy="12"/>
<feGaussianBlur stdDeviation="15"/>
<feComposite in2="hardAlpha" operator="out"/>
<feColorMatrix type="matrix" values="0 0 0 0 0.802604 0 0 0 0 0.820052 0 0 0 0 0.8375 0 0 0 0.28 0"/>
<feBlend mode="normal" in2="BackgroundImageFix" result="effect1_dropShadow_1_308"/>
<feBlend mode="normal" in="SourceGraphic" in2="effect1_dropShadow_1_308" result="shape"/>
</filter>
</defs>
</svg>
